<?xml version="1.0" encoding="utf-8"?>
<!-- Generator: Adobe Illustrator 27.9.4, SVG Export Plug-In . SVG Version: 9.03 Build 54784)  -->
<svg version="1.1" id="Layer_1" xmlns="http://www.w3.org/2000/svg" xmlns:xlink="http://www.w3.org/1999/xlink" x="0px" y="0px"
	 viewBox="0 0 845.8 216" style="enable-background:new 0 0 845.8 216;" xml:space="preserve">
<g>
	<path d="M0,0h35.8v174.5h88.7v33.9H0V0z"/>
	<path d="M277.1,137.3c0,2.7,0,8-0.3,13.4H171.5c2.7,12.5,17.3,28.6,39.6,28.6c24.8,0,38.7-14.3,38.7-14.3l17.9,26.8
		c0,0-22.3,20.2-56.6,20.2c-42.8,0-75.9-32.8-75.9-74.2s30.1-74.2,70.9-74.2C244.8,63.7,277.1,93.8,277.1,137.3L277.1,137.3z
		 M241.5,124.7c-0.6-12.2-11.9-28.6-35.5-28.6c-22.9,0-33.4,16-34.5,28.6C171.5,124.7,241.5,124.7,241.5,124.7z"/>
	<path d="M567.1,116.4v92H534v-17.9c0,0-14.6,21.5-46.4,21.5c-26.5,0-50.9-17.3-50.9-47.4c0-27.1,24.7-46.8,55.4-46.8
		c25.9,0,39.3,10.1,39.3,10.1v-8c0-18.5-17.9-24.5-30.3-24.5c-20.6,0-42.2,10.4-42.2,10.4l-11.6-29.5c0,0,26.2-12.8,55.7-12.8
		C543.3,63.7,567.1,84.3,567.1,116.4L567.1,116.4z M531.3,165.8v-14.6c0,0-12.8-7.2-32.2-7.2c-11,0-26.2,4.7-26.2,19.9
		c0,14.9,14.6,18.2,25.6,18.2C520,182.2,531.3,165.8,531.3,165.8z"/>
	<path d="M699.6,68.2L687,100.4c0,0-6.6-3.3-17-3.3c-21.8,0-31.5,19-31.5,19v92.3h-35.8V67.3h33.9v20.6c0,0,12.2-24.1,38.4-24.1
		C687.9,63.7,699.6,68.2,699.6,68.2z"/>
	<path d="M845.8,137.3c0,2.7,0,8-0.3,13.4H740c2.7,12.5,17.3,28.6,39.6,28.6c24.8,0,38.7-14.3,38.7-14.3l17.9,26.8
		c0,0-22.3,20.2-56.6,20.2c-42.8,0-75.9-32.8-75.9-74.2s30.1-74.2,70.9-74.2C813.3,63.7,845.8,93.8,845.8,137.3L845.8,137.3z
		 M810,124.7c-0.6-12.2-11.9-28.6-35.5-28.6c-22.9,0-33.4,16-34.5,28.6C740,124.7,810,124.7,810,124.7z"/>
	<polygon points="423.4,80.9 439.2,86.9 429.7,68.3 429.8,67.9 429.5,67.9 429.2,67.4 419.3,48 398.9,55.9 378.6,63.9 391.1,68.6 
		356,144.1 320.3,67.3 280.7,67.3 355.4,215.6 355.4,215.6 355.4,215.6 	"/>
</g>
</svg>
