<?xml version="1.0" encoding="UTF-8"?><svg id="Layer_1" xmlns="http://www.w3.org/2000/svg" viewBox="0 0 330.26866 84.19068"><defs><style>.cls-1{stroke-width:0px;}</style></defs><path class="cls-1" d="m0,0h13.95226v68.13594h34.64892v13.25386H0V0Z"/><path class="cls-1" d="m108.23719,53.60114c0,1.04444,0,3.13966-.11746,5.2317h-41.15838c1.04444,4.8825,6.7428,11.1634,15.46336,11.1634,9.65071,0,15.11416-5.58249,15.11416-5.58249l6.97772,10.46499s-8.72056,7.90787-22.09188,7.90787c-16.74272,0-29.64896-12.79037-29.64896-28.95373,0-16.16177,11.74435-28.95214,27.6712-28.95214,15.11733,0,27.79024,11.74276,27.79024,28.72039Zm-13.95226-4.88567c-.23492-4.76504-4.65075-11.16181-13.83798-11.16181-8.95231,0-13.02211,6.27931-13.4856,11.16181h27.32358Z"/><path class="cls-1" d="m221.46005,45.46152v35.92827h-12.90783v-6.97772s-5.69519,8.37453-18.13636,8.37453c-10.34912,0-19.88079-6.74598-19.88079-18.49032,0-10.58086,9.64913-18.25382,21.62363-18.25382,10.1142,0,15.3459,3.95235,15.3459,3.95235v-3.13966c0-7.20629-6.97454-9.53325-11.85704-9.53325-8.02215,0-16.51097,4.06981-16.51097,4.06981l-4.5333-11.51101s10.23166-4.99996,21.7395-4.99996c15.81574,0,25.11725,8.02215,25.11725,20.58078Zm-13.95544,19.30143v-5.69836s-4.99678-2.79045-12.55545-2.79045c-4.30155,0-10.23166,1.8603-10.23166,7.79041,0,5.81424,5.69836,7.09359,9.99992,7.09359,8.37136,0,12.78719-6.39518,12.78719-6.39518Z"/><path class="cls-1" d="m273.18977,26.62676l-4.88567,12.55545s-2.55553-1.27935-6.62534-1.27935c-8.48882,0-12.32688,7.44121-12.32688,7.44121v36.04573h-13.94909V26.27756h13.25386v8.02215s4.76504-9.41897,14.9967-9.41897c4.99996,0,9.53643,1.74602,9.53643,1.74602Z"/><path class="cls-1" d="m330.26866,53.60114c0,1.04444,0,3.13966-.11746,5.2317h-41.15838c1.04444,4.8825,6.7428,11.1634,15.46336,11.1634,9.65071,0,15.11416-5.58249,15.11416-5.58249l6.97772,10.46499s-8.72056,7.90787-22.09188,7.90787c-16.74272,0-29.65054-12.79037-29.65054-28.95373,0-16.16177,11.74593-28.95214,27.67278-28.95214,15.11416,0,27.79024,11.74276,27.79024,28.72039Zm-13.95226-4.88567c-.23492-4.76504-4.65075-11.16181-13.83798-11.16181-8.95231,0-13.02211,6.27931-13.4856,11.16181h27.32358Z"/><polygon class="cls-1" points="165.18139 31.85498 172.60924 34.40314 168.59893 23.96961 164.58861 13.53614 155.01812 19.31067 145.44756 25.08527 152.424 27.47858 139.03216 56.27045 125.08147 26.27747 109.61815 26.27747 138.80199 84.18018 138.8034 84.17737 138.8034 84.19068 165.18139 31.85498"/></svg>