<svg id="Layer_1" enable-background="new 0 0 500 500" viewBox="0 0 500 500" xmlns="http://www.w3.org/2000/svg"><path clip-rule="evenodd" d="m468.278 110.754c-15.175 0-28.526 7.898-36.173 19.795-7.658-11.897-21.009-19.795-36.178-19.795-3.765 0-6.82 3.055-6.82 6.819 0 3.765 3.055 6.819 6.82 6.819 16.189 0 29.359 13.17 29.359 29.347 0 3.776 3.055 6.825 6.819 6.825 3.765 0 6.819-3.049 6.819-6.825 0-16.178 13.176-29.347 29.353-29.347 3.765 0 6.82-3.055 6.82-6.819 0-3.763-3.055-6.819-6.819-6.819zm-141.67-42.821c16.178 0 29.347 13.169 29.347 29.353 0 3.77 3.055 6.819 6.819 6.819 3.77 0 6.825-3.049 6.825-6.819 0-16.184 13.17-29.353 29.353-29.353 3.764 0 6.825-3.055 6.825-6.819s-3.061-6.819-6.825-6.819c-15.169 0-28.521 7.904-36.178 19.795-7.652-11.891-20.997-19.795-36.167-19.795-3.776 0-6.825 3.055-6.825 6.819.001 3.764 3.05 6.819 6.826 6.819zm96.702 314.675c0-8.256-6.708-14.97-14.97-14.97h-4.409c-6.01 0-9.06-7.25-4.931-11.551 5.142-5.347 7.969-12.378 7.969-19.789 0-15.773-12.835-28.603-28.603-28.603-12.46 0-23.402 7.963-27.225 19.807-.927 2.891-3.671 4.82-6.679 4.726-16.455-.41-29.66 12.839-29.517 28.579.064 3.548-2.609 6.555-6.145 6.901-7.587.739-13.515 7.288-13.515 14.899 0 8.256 6.714 14.976 14.97 14.976h98.086c8.261.001 14.969-6.719 14.969-14.975zm13.645 0c0 15.779-12.835 28.62-28.614 28.62h-98.086c-15.779 0-28.614-12.841-28.614-28.62 0-12.542 8.426-23.566 20.018-27.277 2.55-19.531 18.488-34.923 38.283-36.607 6.802-14.94 21.678-24.674 38.424-24.674 31.435 0 51.682 33.171 37.844 61.046 11.967 3.43 20.745 14.46 20.745 27.512zm-178.247-46.34-51.025-29.447-41.245 63.116c-1.267 1.929-3.401 3.096-5.705 3.096l-103.023.123c-5.407.003-9.603 4.322-9.517 9.698.082 5.037 3.94 9.065 8.959 9.364l45.578 2.738 76.667 2.275 32.578-46.193c2.175-3.073 6.427-3.811 9.505-1.636 3.084 2.164 3.817 6.421 1.648 9.505l-34.689 49.184c-1.337 1.887-3.469 2.919-5.776 2.885l-73.277-2.175.164 10.156c.082 4.884 3.677 8.807 8.532 9.323l69.149 7.312c10.349 1.085 19.696-4.556 25.671-15.486zm-55.382-47.718 2.521-3.852 23.073-39.966-1.595-27.254c-4-2.305-6.884-4.641-11.622-3.372-2.539.68-4.656 2.293-5.957 4.55l-26.967 46.709c-2.693 4.668-1.074 10.692 3.583 13.387zm-17.691-55.417h-26.146c-14.987 0-27.184-12.191-27.184-27.172 0-15.799 13.621-28.275 28.837-27.131-3.119 6.409-4.791 13.504-4.791 20.698 0 3.77 3.055 6.819 6.819 6.819 3.776 0 6.819-3.049 6.819-6.819 0-18.503 14.993-33.598 33.604-33.598 7.769 0 15.181 2.65 21.15 7.494l1.654 28.145c-10.63-3.943-22.767.378-28.468 10.261zm-26.146-68c.217 0 .428.006.645.018 10.63-25.514-8.107-53.605-35.651-53.605-21.32 0-38.664 17.339-38.664 38.659 0 20.634 16.254 37.545 36.636 38.612 6.485-13.973 20.646-23.684 37.034-23.684zm77.623-13.861 10.214-26.744 12.642 5.043-8.579 22.451c-.34.903-.498 1.865-.434 2.832l3.008 51.476c.141 2.293 1.413 4.357 3.401 5.512l59.246 34.208c1.994 1.143 4.421 1.214 6.468.188l46.094-23.126c.856-.44 1.618-1.05 2.228-1.8l15.157-18.658 10.678 8.426-18.042 22.217-84.782 42.546c-1.19.598-2.181 1.536-2.856 2.691l-26.392 45.713-49.805-28.755 26.404-45.718c.663-1.155.973-2.474.903-3.805zm15.093-39.48 12.63 5.037 2.938-7.693c2.141-5.61-3.555-11.107-9.124-8.625-1.665.745-2.938 2.082-3.583 3.77zm148.143 73.887-5.184 6.391 10.678 8.42 5.066-6.239c3.727-4.603.152-11.661-5.981-11.029-1.817.182-3.441 1.05-4.579 2.457zm-113.431 10.69c5.387 20.028 32.336 23.515 42.675 5.623 9.012-15.597-2.475-34.941-20.136-34.941-15.332 0-26.495 14.491-22.539 29.318zm-7.857 131.092-54.18 99.183c-8.57 15.692-23.221 24.224-39.092 22.51l-69.144-7.312c-11.627-1.231-20.54-10.971-20.728-22.645l-.194-10.994-39.386-2.369c-20.201-1.208-28.841-25.481-15.163-39.415 4.368-4.451 10.232-6.907 16.518-6.907l99.341-.123 38.817-59.41-16.307-9.411c-11.193-6.468-15.04-20.827-8.578-32.021l6.796-11.774h-18.218c-23.975 0-42.868-20.53-40.699-44.569-26.193-2.832-46.663-25.067-46.663-51.998 0-28.837 23.466-52.303 52.303-52.303 33.406 0 58.283 31.027 51.054 63.608 13.95-10.31 32.56-12.135 48.234-4.697l-.364-6.215c-.053-.962.1-1.929.445-2.826l18.47-48.363c4.011-10.515 15.876-15.82 26.392-11.803 10.531 4.028 15.826 15.873 11.797 26.392l-15.861 41.52 2.721 46.346 9.147 5.289c-10.663-21.167.695-46.402 23.337-52.479 9.523-2.557 19.485-1.249 28.022 3.694 17.638 10.173 23.701 32.813 13.521 50.444-6.312 10.928-17.566 17.758-30.092 18.417l8.942 5.166 41.485-20.827 28.022-34.496c11.395-14.002 34.312-7.374 36.19 10.789.563 5.447-1.02 10.765-4.456 14.993l-32.643 40.183c-.61.745-1.366 1.354-2.228 1.788l-84.272 42.294zm-103.375-221.638c1.747 0 3.495-.663 4.832-1.999l14.378-14.383c2.668-2.662 2.668-6.984 0-9.646-2.662-2.668-6.984-2.668-9.651 0l-14.378 14.377c-4.301 4.305-1.205 11.651 4.819 11.651zm-121.617 114.798c2.681 2.658 6.972 2.668 9.651 0l14.378-14.378c2.668-2.668 2.668-6.989 0-9.652-2.662-2.668-6.983-2.668-9.646 0l-14.383 14.378c-2.662 2.668-2.662 6.984 0 9.652zm4.826-70.416c0-3.764-3.061-6.819-6.825-6.819h-20.347c-3.764 0-6.819 3.055-6.819 6.819 0 3.77 3.055 6.825 6.819 6.825h20.347c3.764 0 6.825-3.055 6.825-6.825zm9.557-46.381c2.665 2.665 6.988 2.67 9.646 0 2.668-2.668 2.668-6.983 0-9.652l-14.378-14.377c-2.662-2.668-6.983-2.668-9.651 0-2.662 2.662-2.662 6.983 0 9.646zm49.214-26.029c0 3.764 3.055 6.819 6.819 6.819s6.819-3.055 6.819-6.819v-20.347c0-3.764-3.055-6.819-6.819-6.819s-6.819 3.055-6.819 6.819z" fill-rule="evenodd"/></svg>