<svg id="Capa_1" enable-background="new 0 0 512 512" height="512" viewBox="0 0 512 512" width="512" xmlns="http://www.w3.org/2000/svg"><g><path d="m504.5 366.561c4.143 0 7.5-3.358 7.5-7.5v-179.531c0-9.649-7.851-17.5-17.5-17.5h-477c-9.649 0-17.5 7.851-17.5 17.5v275.94c0 9.649 7.851 17.5 17.5 17.5h41.074l-21.538 21.015c-6.609 6.451-1.902 18.015 7.334 18.015h33.226c4.593 0 8.934-1.767 12.222-4.975l34.902-34.055h262.561l34.902 34.055c3.287 3.208 7.628 4.975 12.222 4.975h33.226c9.236 0 13.943-11.565 7.333-18.015l-21.537-21.015h41.073c9.649 0 17.5-7.851 17.5-17.5v-65.392c0-4.142-3.357-7.5-7.5-7.5s-7.5 3.358-7.5 7.5v65.392c0 1.378-1.121 2.5-2.5 2.5h-477c-1.378 0-2.5-1.122-2.5-2.5v-275.94c0-1.378 1.122-2.5 2.5-2.5h477c1.379 0 2.5 1.122 2.5 2.5v179.531c0 4.142 3.357 7.5 7.5 7.5zm-72.553 106.409 24.627 24.03h-22.17c-.656 0-1.276-.252-1.747-.711l-23.898-23.319zm-328.706 0-23.898 23.319c-.47.458-1.09.711-1.746.711h-22.17l24.627-24.03z"/><path d="m189.23 96.16c-20.494 20.492 11.308 52.334 31.819 31.82 19.272-19.271 50.629-19.271 69.901-.001 20.491 20.496 52.332-11.305 31.82-31.819-17.809-17.809-41.522-27.617-66.77-27.617-25.249 0-48.961 9.808-66.77 27.617zm125.13 15.91c0 6.298-8.351 9.755-12.804 5.303-25.118-25.118-65.993-25.119-91.114.001-6.857 6.857-17.462-3.75-10.606-10.607 14.976-14.976 34.922-23.224 56.164-23.224s41.188 8.247 56.165 23.224c1.415 1.417 2.195 3.3 2.195 5.303z"/><path d="m156.725 86.155c6.01 0 11.661-2.34 15.91-6.59 45.968-45.968 120.762-45.967 166.731 0 20.463 20.468 52.338-11.299 31.82-31.819-30.79-30.79-71.696-47.746-115.186-47.746-20.29 0-40.056 3.663-58.749 10.888-3.864 1.493-5.785 5.835-4.292 9.699s5.836 5.785 9.699 4.292c16.962-6.555 34.909-9.879 53.342-9.879 39.483 0 76.623 15.396 104.579 43.352 6.873 6.875-3.793 17.421-10.606 10.606-51.815-51.815-136.129-51.816-187.945 0-6.858 6.858-17.46-3.753-10.606-10.607 7.993-7.993 16.864-15.062 26.367-21.011 3.511-2.198 4.576-6.826 2.377-10.336-2.197-3.511-6.826-4.576-10.336-2.377-10.461 6.548-20.223 14.327-29.014 23.119-13.928 13.925-3.606 38.409 15.909 38.409z"/><path d="m280.37 408.785c1.278 3.598 4.689 6.003 8.503 6.003h.062c3.838-.026 7.247-2.485 8.498-6.168l22.039-66.341c1.307-3.931-.822-8.176-4.753-9.482-3.928-1.307-8.176.822-9.481 4.753l-16.488 49.632-17.304-49.851c-1.357-3.913-5.633-5.984-9.544-4.626-3.913 1.358-5.984 5.632-4.626 9.545z"/><path d="m218.208 414.789c4.142 0 7.5-3.358 7.5-7.5v-59.998h11.214c4.142 0 7.5-3.358 7.5-7.5s-3.358-7.5-7.5-7.5h-37.276c-4.142 0-7.5 3.358-7.5 7.5s3.358 7.5 7.5 7.5h11.062v59.998c0 4.142 3.358 7.5 7.5 7.5z"/><path d="m247.292 314.302c3.872 1.476 8.204-.469 9.678-4.339l4.472-11.743h30.369l4.424 11.722c1.372 3.639 6.064 5.728 9.665 4.369 3.875-1.463 5.831-5.79 4.368-9.665l-25.115-66.55c-.025-.069-.053-.138-.081-.206-1.398-3.399-4.675-5.594-8.351-5.594-.002 0-.005 0-.007 0-3.679.003-6.956 2.204-8.35 5.607-.023.058-.046.115-.068.173l-25.345 66.547c-1.472 3.872.471 8.205 4.341 9.679zm29.405-56.134 9.454 25.052h-18.996z"/><path d="m160.208 308.099 7.382-40.903 12.149 41.181c.026.089.054.177.083.265 1.237 3.685 4.671 6.152 8.555 6.152h.046c3.902-.02 7.333-2.527 8.538-6.239.028-.086.054-.172.079-.259l11.73-41.15 7.841 41.028c.777 4.069 4.706 6.737 8.774 5.959 4.069-.777 6.736-4.706 5.959-8.774l-12.583-65.841c-.818-4.013-4.245-6.977-8.334-7.208-4.087-.232-7.828 2.328-9.093 6.223-.028.086-.055.173-.08.26l-12.977 45.521-13.453-45.598c-.026-.089-.054-.178-.083-.266-1.304-3.884-5.077-6.405-9.158-6.131-4.088.274-7.484 3.275-8.275 7.384l-11.864 65.73c-.736 4.076 1.973 7.977 6.049 8.713 4.079.736 7.979-1.971 8.715-6.047z"/><path d="m106.533 299.793c-6.969 0-13.685-2.819-17.964-7.542-2.782-3.069-7.524-3.303-10.594-.521-3.069 2.782-3.303 7.524-.521 10.594 7.076 7.808 17.946 12.469 29.079 12.469 13.77 0 25.328-8.752 27.48-20.811 1.614-9.038-2.537-20.861-19.023-26.943-4.515-1.666-21.744-5.1-20.634-12.831.196-1.369 1.177-4.711 6.026-6.172 10.021-3.022 19.219 4.289 19.439 4.467 3.17 2.634 7.877 2.215 10.533-.944 2.665-3.171 2.255-7.902-.915-10.567-.621-.522-15.422-12.729-33.384-7.318-8.965 2.701-15.305 9.752-16.547 18.403-2.727 18.992 16.748 24.039 30.291 29.035 3.181 1.173 10.469 4.519 9.448 10.233-.741 4.154-5.7 8.448-12.714 8.448z"/><path d="m428.988 232.295h-37.276c-4.143 0-7.5 3.358-7.5 7.5s3.357 7.5 7.5 7.5h11.062v59.998c0 4.142 3.357 7.5 7.5 7.5s7.5-3.358 7.5-7.5v-59.998h11.214c4.143 0 7.5-3.358 7.5-7.5s-3.357-7.5-7.5-7.5z"/><path d="m373.229 257.337c0-13.808-11.68-25.042-26.035-25.042h-17.937c-.004 0-.007 0-.011 0s-.007 0-.011 0c-4.143 0-7.5 3.358-7.5 7.5v67.498c0 4.142 3.357 7.5 7.5 7.5s7.5-3.358 7.5-7.5v-21.589l23.363 26.544c3.436 3.151 6.964 3.376 10.585.675 3.109-2.737 3.411-7.476.675-10.585l-18.163-20.638c11.471-2.614 20.034-12.541 20.034-24.363zm-26.035 10.042c-2.396 0-6.607.018-10.338.037l-.072-20.121h10.41c5.981 0 11.035 4.599 11.035 10.042s-5.053 10.042-11.035 10.042z"/><path d="m365.729 381.04h63.259c4.143 0 7.5-3.358 7.5-7.5s-3.357-7.5-7.5-7.5h-63.259c-4.143 0-7.5 3.358-7.5 7.5s3.358 7.5 7.5 7.5z"/><path d="m83.012 381.04h63.259c4.142 0 7.5-3.358 7.5-7.5s-3.358-7.5-7.5-7.5h-63.259c-4.142 0-7.5 3.358-7.5 7.5s3.358 7.5 7.5 7.5z"/></g></svg>